<?xml version="1.0" standalone="no"?>
<!DOCTYPE svg PUBLIC "-//W3C//DTD SVG 20010904//EN"
 "http://www.w3.org/TR/2001/REC-SVG-20010904/DTD/svg10.dtd">
<svg version="1.0" xmlns="http://www.w3.org/2000/svg"
 width="141.000000pt" height="141.000000pt" viewBox="0 0 141.000000 141.000000"
 preserveAspectRatio="xMidYMid meet">
<metadata>
Created by potrace 1.14, written by Peter Selinger 2001-2017
</metadata>
<g transform="translate(0.000000,141.000000) scale(0.100000,-0.100000)"
fill="#000000" stroke="none">
<path d="M174 1069 c-78 -16 -144 -78 -160 -152 -7 -30 -6 -396 0 -426 11 -50
56 -102 109 -127 46 -21 66 -24 170 -24 128 0 172 11 212 55 32 33 48 88 41
138 -3 23 -5 45 -5 49 -2 15 -55 70 -83 84 -16 8 -60 17 -96 19 -37 2 -70 4
-74 4 -5 1 -8 10 -8 22 0 19 5 20 73 18 112 -4 181 -39 216 -112 18 -37 21
-63 22 -160 l0 -117 110 0 c97 0 109 2 110 18 0 9 0 55 0 100 0 187 68 265
234 266 73 1 80 -1 80 -18 0 -17 -8 -20 -70 -22 -82 -2 -116 -14 -151 -51 -34
-37 -46 -68 -45 -125 0 -58 20 -99 68 -135 36 -28 38 -28 182 -28 156 0 184 7
232 58 50 53 53 70 55 284 2 115 -2 219 -8 240 -15 55 -51 98 -105 124 l-48
24 -516 0 c-283 0 -529 -2 -545 -6z m1063 -117 c44 -24 51 -57 52 -230 2 -177
-7 -229 -41 -252 -36 -22 -221 -27 -253 -6 -43 28 -26 104 23 107 9 1 45 2 79
4 102 4 151 57 140 151 -3 34 -13 55 -36 78 l-31 31 -118 0 c-108 0 -121 -2
-172 -28 -92 -47 -143 -106 -166 -192 l-10 -40 -19 58 c-23 73 -84 138 -163
175 -46 21 -76 27 -155 30 -111 5 -146 -5 -179 -50 -27 -38 -29 -114 -5 -151
30 -46 62 -60 143 -62 82 -3 101 -13 109 -58 4 -18 -1 -33 -15 -47 -17 -17
-33 -20 -115 -20 -111 0 -160 16 -175 55 -6 15 -10 109 -10 209 0 170 1 185
21 210 11 14 34 29 50 34 17 4 254 7 527 7 374 -1 503 -4 519 -13z"/>
</g>
</svg>
